<svg width="1280" height="520" viewBox="0 0 1280 520" fill="none" xmlns="http://www.w3.org/2000/svg" role="img" aria-labelledby="title desc">
  <title id="title">Palari Orchestrator workflow</title>
  <desc id="desc">A ticket moves through worktree-first execution, agent packet generation, scope checks, fresh-context review, and human acceptance.</desc>
  <rect width="1280" height="520" rx="28" fill="#FFF9EF"/>
  <circle cx="1110" cy="70" r="5" fill="#12345C"/>
  <circle cx="1142" cy="70" r="5" fill="#F78A3B"/>
  <circle cx="1174" cy="70" r="5" fill="#5B4DFF"/>
  <circle cx="1206" cy="70" r="5" fill="#2C8FB8"/>
  <circle cx="1238" cy="70" r="5" fill="#2B9968"/>
  <circle cx="1270" cy="70" r="5" fill="#F4B433"/>
  <path d="M69 88C174 52 278 52 384 88" stroke="#E6DCCB" stroke-width="2"/>
  <path d="M896 430C992 470 1092 470 1188 430" stroke="#E6DCCB" stroke-width="2"/>
  <text x="64" y="82" fill="#102A43" font-family="Inter, ui-sans-serif, system-ui, -apple-system, BlinkMacSystemFont, Segoe UI, sans-serif" font-size="28" font-weight="760">Portable Agent Workflow</text>
  <text x="64" y="118" fill="#607083" font-family="Inter, ui-sans-serif, system-ui, -apple-system, BlinkMacSystemFont, Segoe UI, sans-serif" font-size="17">A small operating layer for tickets, isolated execution, review evidence, and explicit acceptance.</text>

  <path d="M156 247H1124" stroke="#173B63" stroke-width="4" stroke-linecap="round"/>
  <path d="M156 247C156 302 156 329 183 329H1097C1124 329 1124 302 1124 247" stroke="#173B63" stroke-width="3" stroke-linecap="round"/>
  <path d="M632 329V396" stroke="#173B63" stroke-width="3" stroke-linecap="round"/>
  <circle cx="156" cy="247" r="12" fill="#FFF9EF" stroke="#F78A3B" stroke-width="4"/>
  <circle cx="398" cy="247" r="12" fill="#FFF9EF" stroke="#12345C" stroke-width="4"/>
  <circle cx="640" cy="247" r="12" fill="#FFF9EF" stroke="#5B4DFF" stroke-width="4"/>
  <circle cx="882" cy="247" r="12" fill="#FFF9EF" stroke="#2B9968" stroke-width="4"/>
  <circle cx="1124" cy="247" r="12" fill="#FFF9EF" stroke="#F4B433" stroke-width="4"/>

  <g filter="url(#shadow)">
    <rect x="64" y="166" width="184" height="154" rx="14" fill="#FFFFFF" stroke="#EFE6D7"/>
    <rect x="96" y="200" width="50" height="50" rx="13" fill="#FFF0E3"/>
    <path d="M112 229H132M112 217H132M104 205H138C142 205 145 208 145 212V237C145 241 142 244 138 244H104C100 244 97 241 97 237V212C97 208 100 205 104 205Z" stroke="#F0782D" stroke-width="4" stroke-linecap="round"/>
    <text x="96" y="276" fill="#102A43" font-family="Inter, ui-sans-serif, system-ui, sans-serif" font-size="19" font-weight="760">Ticket</text>
    <text x="96" y="301" fill="#607083" font-family="Inter, ui-sans-serif, system-ui, sans-serif" font-size="14">scope, risk, checks</text>
  </g>

  <g filter="url(#shadow)">
    <rect x="306" y="166" width="184" height="154" rx="14" fill="#FFFFFF" stroke="#EFE6D7"/>
    <rect x="338" y="200" width="50" height="50" rx="13" fill="#EAF1FB"/>
    <path d="M349 218H369M349 232H379M349 204H373L381 212V244H349V204Z" stroke="#173B63" stroke-width="4" stroke-linecap="round" stroke-linejoin="round"/>
    <text x="338" y="276" fill="#102A43" font-family="Inter, ui-sans-serif, system-ui, sans-serif" font-size="19" font-weight="760">Worktree</text>
    <text x="338" y="301" fill="#607083" font-family="Inter, ui-sans-serif, system-ui, sans-serif" font-size="14">one branch per job</text>
  </g>

  <g filter="url(#shadow)">
    <rect x="548" y="166" width="184" height="154" rx="14" fill="#FFFFFF" stroke="#EFE6D7"/>
    <rect x="580" y="200" width="50" height="50" rx="13" fill="#F0EEFF"/>
    <path d="M593 215L605 208L617 215V229L605 236L593 229V215Z" stroke="#5B4DFF" stroke-width="4" stroke-linejoin="round"/>
    <path d="M593 215L605 222L617 215M605 222V236" stroke="#5B4DFF" stroke-width="3" stroke-linecap="round"/>
    <text x="580" y="276" fill="#102A43" font-family="Inter, ui-sans-serif, system-ui, sans-serif" font-size="19" font-weight="760">Packet</text>
    <text x="580" y="301" fill="#607083" font-family="Inter, ui-sans-serif, system-ui, sans-serif" font-size="14">role mission brief</text>
  </g>

  <g filter="url(#shadow)">
    <rect x="790" y="166" width="184" height="154" rx="14" fill="#FFFFFF" stroke="#EFE6D7"/>
    <rect x="822" y="200" width="50" height="50" rx="13" fill="#E8F6EF"/>
    <path d="M835 224L844 233L860 211" stroke="#2B9968" stroke-width="5" stroke-linecap="round" stroke-linejoin="round"/>
    <circle cx="847" cy="224" r="24" stroke="#2B9968" stroke-width="4"/>
    <text x="822" y="276" fill="#102A43" font-family="Inter, ui-sans-serif, system-ui, sans-serif" font-size="19" font-weight="760">Scope</text>
    <text x="822" y="301" fill="#607083" font-family="Inter, ui-sans-serif, system-ui, sans-serif" font-size="14">allowed paths only</text>
  </g>

  <g filter="url(#shadow)">
    <rect x="1032" y="166" width="184" height="154" rx="14" fill="#FFFFFF" stroke="#EFE6D7"/>
    <rect x="1064" y="200" width="50" height="50" rx="13" fill="#FFF7D9"/>
    <path d="M1078 225L1087 234L1103 212" stroke="#D99812" stroke-width="5" stroke-linecap="round" stroke-linejoin="round"/>
    <path d="M1071 207H1107V244H1071V207Z" stroke="#D99812" stroke-width="4" stroke-linejoin="round"/>
    <text x="1064" y="276" fill="#102A43" font-family="Inter, ui-sans-serif, system-ui, sans-serif" font-size="19" font-weight="760">Accept</text>
    <text x="1064" y="301" fill="#607083" font-family="Inter, ui-sans-serif, system-ui, sans-serif" font-size="14">human gate</text>
  </g>

  <g filter="url(#shadow)">
    <rect x="440" y="380" width="400" height="82" rx="16" fill="#102A43"/>
    <text x="484" y="414" fill="#FFFFFF" font-family="Inter, ui-sans-serif, system-ui, sans-serif" font-size="18" font-weight="760">Fresh-context review</text>
    <text x="484" y="440" fill="#C8D7EA" font-family="Inter, ui-sans-serif, system-ui, sans-serif" font-size="14">technical evidence, custom reports where required, founder approval</text>
    <circle cx="466" cy="421" r="10" fill="#2B9968"/>
  </g>

  <defs>
    <filter id="shadow" x="-20%" y="-20%" width="140%" height="150%" color-interpolation-filters="sRGB">
      <feDropShadow dx="0" dy="12" stdDeviation="18" flood-color="#16304F" flood-opacity="0.11"/>
    </filter>
  </defs>
</svg>
